<svg xmlns="http://www.w3.org/2000/svg" viewBox="0 0 2510.05 429.86"><defs><style>.cls-1{fill:#18181b;}.cls-2{fill:#fdd92d;}</style></defs><g id="Logo"><path class="cls-1" d="M611.76,144.33a63.4,63.4,0,0,1,35.15,10.33A71.77,71.77,0,0,1,672,182.82a88.33,88.33,0,0,1,0,78.26,72.23,72.23,0,0,1-25.12,28.32,63.14,63.14,0,0,1-35.15,10.4,61.67,61.67,0,0,1-26.38-5.72q-12.27-5.73-17.76-14.94v24.08a43,43,0,0,1-43,43h0V190.26a43,43,0,0,1,43-43h0V165q5.49-9.23,17.76-14.94A61.67,61.67,0,0,1,611.76,144.33ZM602.4,259.07q15.6,0,26.16-10.62t10.55-26.54q0-15.75-10.63-26.45a35.3,35.3,0,0,0-26.08-10.7A41.4,41.4,0,0,0,582,190a37.16,37.16,0,0,0-14.41,13.6V240.2a36.53,36.53,0,0,0,14.27,13.67A41.5,41.5,0,0,0,602.4,259.07Z"/><path class="cls-1" d="M811.08,147.3h0a43,43,0,0,1,43,43V296.83H828.77a17.69,17.69,0,0,1-17.69-17.69h0q-5.49,9.21-17.76,14.94a61.67,61.67,0,0,1-26.38,5.72,63.52,63.52,0,0,1-35.23-10.4,72.66,72.66,0,0,1-25.27-28.32,84.36,84.36,0,0,1-9.21-39.17q0-32.4,20.29-55t49.42-22.59a61.2,61.2,0,0,1,26.31,5.79q12.33,5.81,17.83,14.87ZM776.45,259.07a41.36,41.36,0,0,0,20.29-5.2,37.17,37.17,0,0,0,14.34-13.38V203.93a37.27,37.27,0,0,0-14-13.64,41.17,41.17,0,0,0-20.63-5.53q-15.74,0-26.43,10.62t-10.7,26.53q0,15.92,10.7,26.54T776.45,259.07Z"/><path class="cls-1" d="M943.22,299.8q-40.72,0-67-18.73l5.57-13a16.23,16.23,0,0,1,21.62-8.36q16.15,7.26,36.12,7.26,10,0,16-3.42t6-8.77q0-4.6-4.53-7.65a36.94,36.94,0,0,0-11.67-4.83q-7.12-1.78-15.75-3.64a141.25,141.25,0,0,1-17.25-4.91,77,77,0,0,1-15.75-7.58,34.29,34.29,0,0,1-11.67-12.78A40.88,40.88,0,0,1,880.2,194q-.3-21.1,16.65-35.37t43.25-14.27q35.52,0,56.93,17.09l-5.39,13.72a16.2,16.2,0,0,1-21.55,8.93q-3.36-1.45-7-2.73a75.47,75.47,0,0,0-24.74-4.46q-8.19,0-13.23,3.42T920,188.77a8.52,8.52,0,0,0,3.57,6.76,27.49,27.49,0,0,0,9.29,4.68c3.81,1.19,8.18,2.51,13.08,3.94s9.88,2.85,14.94,4.24a80.44,80.44,0,0,1,14.94,5.8A73.4,73.4,0,0,1,989,222.58a34.86,34.86,0,0,1,9.44,12.27,40.78,40.78,0,0,1,3.79,17.24q0,20.8-16.57,34.26T943.22,299.8Z"/><path class="cls-1" d="M1117,257l1.17,20a20.88,20.88,0,0,1-20.67,22.17h-.27q-26.76,0-43.18-16.13t-16.43-44.67V188.17h-27.79V175.09a27.79,27.79,0,0,1,27.79-27.79h0a39.24,39.24,0,0,1,39.24-39.24h3.72V147.3h36.71v4.16a36.7,36.7,0,0,1-36.71,36.71h0v48q0,10.26,6.69,16.58a22.93,22.93,0,0,0,16.35,6.31A40.32,40.32,0,0,0,1117,257Z"/><path class="cls-1" d="M1243.91,147.3h0a43,43,0,0,1,43,43V296.83H1261.6a17.69,17.69,0,0,1-17.69-17.69h0q-5.51,9.21-17.76,14.94a61.7,61.7,0,0,1-26.38,5.72,63.5,63.5,0,0,1-35.23-10.4,72.59,72.59,0,0,1-25.27-28.32,84.36,84.36,0,0,1-9.21-39.17q0-32.4,20.29-55t49.42-22.59a61.2,61.2,0,0,1,26.31,5.79q12.33,5.81,17.83,14.87Zm-34.63,111.77a41.38,41.38,0,0,0,20.29-5.2,37.17,37.17,0,0,0,14.34-13.38V203.93a37.27,37.27,0,0,0-14-13.64,41.17,41.17,0,0,0-20.63-5.53q-15.74,0-26.43,10.62t-10.7,26.53q0,15.92,10.7,26.54T1209.28,259.07Z"/><path class="cls-1" d="M1400.72,144.33q28.24,0,44.52,18.2t16.28,49.72v41.62a43,43,0,0,1-43,43h0V219.54q0-15.31-7.73-23.93T1389.72,187a35.49,35.49,0,0,0-29.87,16.94v49.94a43,43,0,0,1-43,43h0V190.26a43,43,0,0,1,43-43h0V165A42.56,42.56,0,0,1,1377,149.9,51.92,51.92,0,0,1,1400.72,144.33Z"/><path class="cls-1" d="M1621.37,178.52a111.29,111.29,0,0,1,7.47,15.08L1536.15,248q10.23,11.58,22.85,13.39t25.94-6a45.53,45.53,0,0,0,14.55-13.53l.12-.17a35.26,35.26,0,0,1,29.73-15.5l15.16.3q.46,17-10.65,33t-31.25,27.81q-28.45,16.69-59.61,8.69t-47.92-36.59q-16.47-28.08-8.29-58.64t36.38-47.11q26.16-15.33,54.62-8.09T1621.37,178.52Zm-98.55,45.57L1579,191.15a27.58,27.58,0,0,0-18.38-10.76,32.14,32.14,0,0,0-21.84,4.19q-11.54,6.78-15.51,17T1522.82,224.09Z"/><path class="cls-1" d="M1750.17,257l1.17,20a20.88,20.88,0,0,1-20.67,22.17h-.27q-26.76,0-43.18-16.13t-16.42-44.67V188.17H1643V175.09a27.79,27.79,0,0,1,27.8-27.79h0A39.24,39.24,0,0,1,1710,108.06h3.71V147.3h36.71v4.16a36.7,36.7,0,0,1-36.71,36.71h0v48q0,10.26,6.69,16.58a22.93,22.93,0,0,0,16.35,6.31A40.32,40.32,0,0,0,1750.17,257Z"/><path class="cls-1" d="M1806,265.65l-42.71-118.34a62.23,62.23,0,0,1,59.52,44.07l11.53,37.82,29.43-81.89a48.5,48.5,0,0,1,45.55,31.81l18.36,50.08,24.68-81.89a32.49,32.49,0,0,1,30.57,43.49l-38.15,106h0a48.38,48.38,0,0,1-45.41-31.66l-18.51-50.23-30.47,81.89h0A47.19,47.19,0,0,1,1806,265.65Z"/><path class="cls-1" d="M2079.84,144.33a79.09,79.09,0,0,1,30.55,5.94,73.69,73.69,0,0,1,41,41.1,79.64,79.64,0,0,1,6,30.84,78.71,78.71,0,0,1-10.18,39.69,73,73,0,0,1-27.94,27.87,78.86,78.86,0,0,1-39.47,10q-33.15,0-55.44-22.15t-22.29-55.44q0-33.28,22.29-55.59T2079.84,144.33Zm0,41q-15.32,0-25.49,10.48t-10.18,26.38q0,15.47,10.18,26t25.49,10.56a33.84,33.84,0,0,0,25.27-10.56q10.26-10.54,10.26-26,0-15.9-10.19-26.38T2079.84,185.35Z"/><path class="cls-1" d="M2260.29,144.33h.23a17.23,17.23,0,0,1,17.06,18.36L2276,187.28a56.29,56.29,0,0,0-19.17-3.42q-8,0-17.76,6.17a40,40,0,0,0-14.79,16.43v47.41a43,43,0,0,1-43,43V190.26a43,43,0,0,1,43-43V165A38.67,38.67,0,0,1,2240,150.05Q2250.47,144.34,2260.29,144.33Z"/><path class="cls-1" d="M2451.28,296.83h0a115.25,115.25,0,0,1-89.59-42.75L2342,229.79v24.08a43,43,0,0,1-43,43h0V126.64a43,43,0,0,1,43-43h0V209.13l51.72-61.83h0c20.71,0,31.86,24.31,18.36,40l-27.72,32.24Z"/><path class="cls-2" d="M391,269.63c5.59,13.53,17.22,41.6,22.88,55.24q-2.34,1.61-4.76,3c-1.61,1-3.23,1.86-4.89,2.72h0a95.3,95.3,0,0,1-15.35,6.27s0,0,0,0c-18.09,5.62-37.61,5.9-56.14,1.67h0a91.83,91.83,0,0,1-36.22-15.05C290,319,274,307.7,267.27,287.59c46.6,48.48,99.22,17.23,99.22,17.23-3.41-8.22-6.61-16-8.85-21.39l-8.79-21.22,43.24-47.28-43.24-47.28,8.79-21.22c2.24-5.42,5.44-13.17,8.85-21.4a75.21,75.21,0,0,0-31,2.86c-27.5,8.67-42.11,31.8-51.32,46.84-4.68,7.64-10.67,24.18-22.65,57.25,0,0-22.19,61.27-44.21,80.94-1.45,1.3-3,2.55-3,2.55-2,1.65-4.08,3.24-6.19,4.76l-1.61,1.12q-1.62,1.11-3.27,2.16A115.13,115.13,0,0,1,189.48,331h0c-1.21.55-2.4,1.07-3.61,1.58s-2.45,1-3.68,1.45-2.47.9-3.72,1.32c-.41.15-.83.29-1.25.42l-1.2.38c-3,.93-5.94,1.73-8.94,2.42h0c-18.52,4.23-38,3.95-56.13-1.67,0,0,0,0,0,0a95.3,95.3,0,0,1-15.35-6.27h0c-1.66-.86-3.28-1.76-4.89-2.72s-3.2-2-4.76-3c5.66-13.64,17.28-41.71,22.88-55.24l-50-54.7,50-54.7c-5.6-13.53-17.22-41.6-22.88-55.25q2.34-1.59,4.76-3c1.61-1,3.23-1.86,4.89-2.72h0A95.35,95.35,0,0,1,110.92,93h0c18.09-5.61,37.61-5.89,56.13-1.66h0a92,92,0,0,1,36.23,15.06c6.48,4.55,22.51,15.81,29.22,35.92C185.92,93.79,133.31,125,133.31,125l8.85,21.4L151,167.65l-43.24,47.28L151,262.21l-8.79,21.22-8.85,21.39a67.13,67.13,0,0,0,31-2.85c1.55-.54,3.38-1.22,5.47-2.16,22.53-10.17,38.92-35.11,38.92-35.11,17.69-27,27.16-57,33.66-77.53,4.79-15.13,11.17-38,30.6-60.49,1.07-1.24,2-2.25,2.59-2.91h0q3.3-3.57,6.94-6.82c1-.87,2-1.72,3-2.55,2-1.65,4.08-3.24,6.19-4.76.53-.38,1.07-.75,1.61-1.12q1.62-1.11,3.27-2.16a114.36,114.36,0,0,1,13.82-7.48h0c1.2-.54,2.4-1.06,3.61-1.57s2.45-1,3.68-1.45,2.47-.9,3.71-1.32l1.26-.42,1.2-.39c3-.92,5.94-1.73,8.93-2.42h0c18.53-4.23,38-4,56.14,1.66h0a95.35,95.35,0,0,1,15.35,6.28h0c1.66.86,3.28,1.76,4.89,2.72s3.2,2,4.76,3c-5.66,13.65-17.29,41.72-22.88,55.25l50,54.7Z"/></g></svg>